<mxfile host="65bd71144e">
    <diagram id="2LINCauTZT-Hnej06T57" name="Page-1">
        <mxGraphModel dx="365" dy="787" grid="1" gridSize="10" guides="1" tooltips="1" connect="1" arrows="1" fold="1" page="1" pageScale="1" pageWidth="850" pageHeight="1100" background="#4D4D4D" math="0" shadow="0">
            <root>
                <mxCell id="0"/>
                <mxCell id="1" parent="0"/>
                <mxCell id="7" style="edgeStyle=none;html=1;exitX=0;exitY=0.5;exitDx=0;exitDy=0;entryX=0.5;entryY=0;entryDx=0;entryDy=0;rounded=1;" parent="1" source="2" target="3" edge="1">
                    <mxGeometry relative="1" as="geometry">
                        <mxPoint x="140" y="260" as="targetPoint"/>
                        <Array as="points">
                            <mxPoint x="100" y="220"/>
                        </Array>
                    </mxGeometry>
                </mxCell>
                <mxCell id="2" value="Program" style="rounded=1;whiteSpace=wrap;html=1;" parent="1" vertex="1">
                    <mxGeometry x="220" y="190" width="120" height="60" as="geometry"/>
                </mxCell>
                <mxCell id="14" style="edgeStyle=none;html=1;exitX=1;exitY=0.5;exitDx=0;exitDy=0;entryX=0;entryY=0.5;entryDx=0;entryDy=0;rounded=1;" parent="1" source="19" target="4" edge="1">
                    <mxGeometry relative="1" as="geometry">
                        <Array as="points">
                            <mxPoint x="210" y="390"/>
                        </Array>
                    </mxGeometry>
                </mxCell>
                <mxCell id="3" value="Start Screen" style="rounded=1;whiteSpace=wrap;html=1;" parent="1" vertex="1">
                    <mxGeometry x="40" y="320" width="120" height="60" as="geometry"/>
                </mxCell>
                <mxCell id="15" style="edgeStyle=none;html=1;exitX=1;exitY=0.5;exitDx=0;exitDy=0;entryX=0;entryY=0.5;entryDx=0;entryDy=0;rounded=1;" parent="1" source="4" target="5" edge="1">
                    <mxGeometry relative="1" as="geometry"/>
                </mxCell>
                <mxCell id="4" value="Game" style="rounded=1;whiteSpace=wrap;html=1;" parent="1" vertex="1">
                    <mxGeometry x="220" y="320" width="120" height="60" as="geometry"/>
                </mxCell>
                <mxCell id="17" style="edgeStyle=none;html=1;exitX=0.5;exitY=0;exitDx=0;exitDy=0;entryX=1;entryY=0.25;entryDx=0;entryDy=0;rounded=1;" parent="1" source="5" target="19" edge="1">
                    <mxGeometry relative="1" as="geometry">
                        <mxPoint x="70" y="270" as="targetPoint"/>
                        <Array as="points">
                            <mxPoint x="460" y="280"/>
                            <mxPoint x="200" y="280"/>
                            <mxPoint x="200" y="340"/>
                            <mxPoint x="160" y="400"/>
                        </Array>
                    </mxGeometry>
                </mxCell>
                <mxCell id="5" value="Endscreen" style="rounded=1;whiteSpace=wrap;html=1;" parent="1" vertex="1">
                    <mxGeometry x="400" y="320" width="120" height="60" as="geometry"/>
                </mxCell>
                <mxCell id="10" value="at game start" style="text;html=1;align=center;verticalAlign=middle;resizable=0;points=[];autosize=1;strokeColor=none;fillColor=none;rounded=1;" parent="1" vertex="1">
                    <mxGeometry x="105" y="185" width="90" height="30" as="geometry"/>
                </mxCell>
                <mxCell id="18" value="" style="shape=flexArrow;endArrow=classic;html=1;exitX=0.5;exitY=1;exitDx=0;exitDy=0;rounded=1;" parent="1" source="3" edge="1">
                    <mxGeometry width="50" height="50" relative="1" as="geometry">
                        <mxPoint x="260" y="530" as="sourcePoint"/>
                        <mxPoint x="100" y="440" as="targetPoint"/>
                    </mxGeometry>
                </mxCell>
                <mxCell id="19" value="Connect joystick and wait for input to start game" style="rounded=1;whiteSpace=wrap;html=1;" parent="1" vertex="1">
                    <mxGeometry x="40" y="440" width="120" height="60" as="geometry"/>
                </mxCell>
                <mxCell id="20" value="" style="shape=flexArrow;endArrow=classic;html=1;exitX=0.5;exitY=1;exitDx=0;exitDy=0;rounded=1;" parent="1" source="4" edge="1">
                    <mxGeometry width="50" height="50" relative="1" as="geometry">
                        <mxPoint x="250" y="510" as="sourcePoint"/>
                        <mxPoint x="280" y="440" as="targetPoint"/>
                    </mxGeometry>
                </mxCell>
                <mxCell id="24" style="edgeStyle=none;html=1;exitX=0.5;exitY=1;exitDx=0;exitDy=0;entryX=0.5;entryY=0;entryDx=0;entryDy=0;rounded=1;" parent="1" source="21" target="22" edge="1">
                    <mxGeometry relative="1" as="geometry"/>
                </mxCell>
                <mxCell id="28" style="edgeStyle=none;html=1;exitX=0.5;exitY=1;exitDx=0;exitDy=0;entryX=0.5;entryY=0;entryDx=0;entryDy=0;rounded=1;" parent="1" source="21" target="27" edge="1">
                    <mxGeometry relative="1" as="geometry"/>
                </mxCell>
                <mxCell id="21" value="Background music starts;&lt;br&gt;Joystick inputs control player direction" style="shape=hexagon;perimeter=hexagonPerimeter2;whiteSpace=wrap;html=1;fixedSize=1;spacing=13;rounded=1;" parent="1" vertex="1">
                    <mxGeometry x="220" y="440" width="120" height="80" as="geometry"/>
                </mxCell>
                <mxCell id="26" style="edgeStyle=none;html=1;exitX=0.5;exitY=1;exitDx=0;exitDy=0;entryX=0.5;entryY=0;entryDx=0;entryDy=0;rounded=1;" parent="1" source="22" target="25" edge="1">
                    <mxGeometry relative="1" as="geometry"/>
                </mxCell>
                <mxCell id="22" value="Map moves in direction opposite to joystick input (and player)" style="ellipse;whiteSpace=wrap;html=1;rounded=1;" parent="1" vertex="1">
                    <mxGeometry x="140" y="550" width="120" height="80" as="geometry"/>
                </mxCell>
                <mxCell id="30" style="edgeStyle=none;html=1;exitX=0.5;exitY=1;exitDx=0;exitDy=0;entryX=0;entryY=0;entryDx=0;entryDy=0;fontSize=11;rounded=1;" parent="1" source="25" target="29" edge="1">
                    <mxGeometry relative="1" as="geometry"/>
                </mxCell>
                <mxCell id="25" value="map velocity is added to human velocity to &quot;Stick them&quot; to the map" style="ellipse;whiteSpace=wrap;html=1;spacing=4;rounded=1;" parent="1" vertex="1">
                    <mxGeometry x="140" y="670" width="120" height="80" as="geometry"/>
                </mxCell>
                <mxCell id="31" style="edgeStyle=none;html=1;exitX=0.5;exitY=1;exitDx=0;exitDy=0;entryX=1;entryY=0;entryDx=0;entryDy=0;fontSize=11;rounded=1;" parent="1" source="27" target="29" edge="1">
                    <mxGeometry relative="1" as="geometry"/>
                </mxCell>
                <mxCell id="27" value="player velocity is stopped to allow the map to continue moving (gives the look of a camera)" style="ellipse;whiteSpace=wrap;html=1;fontSize=11;spacing=8;rounded=1;" parent="1" vertex="1">
                    <mxGeometry x="290" y="550" width="130" height="80" as="geometry"/>
                </mxCell>
                <mxCell id="32" style="edgeStyle=none;html=1;exitX=1;exitY=0.5;exitDx=0;exitDy=0;fontSize=11;rounded=1;" parent="1" source="29" target="36" edge="1">
                    <mxGeometry relative="1" as="geometry">
                        <mxPoint x="470" y="500" as="targetPoint"/>
                        <Array as="points">
                            <mxPoint x="460" y="835"/>
                        </Array>
                    </mxGeometry>
                </mxCell>
                <mxCell id="29" value="humans are removed, eating sound is played when they collide wuth the player" style="rhombus;whiteSpace=wrap;html=1;fontSize=11;spacing=23;rounded=1;" parent="1" vertex="1">
                    <mxGeometry x="205" y="760" width="150" height="150" as="geometry"/>
                </mxCell>
                <mxCell id="33" value="At 20 points" style="text;html=1;align=center;verticalAlign=middle;resizable=0;points=[];autosize=1;strokeColor=none;fillColor=none;fontSize=11;rounded=1;" parent="1" vertex="1">
                    <mxGeometry x="360" y="810" width="80" height="30" as="geometry"/>
                </mxCell>
                <mxCell id="34" value="at joystick click" style="text;html=1;align=center;verticalAlign=middle;resizable=0;points=[];autosize=1;strokeColor=none;fillColor=none;fontSize=11;rounded=1;" parent="1" vertex="1">
                    <mxGeometry x="330" y="260" width="100" height="30" as="geometry"/>
                </mxCell>
                <mxCell id="36" value="Timer, score, music, and positions of sprites are reset" style="rounded=1;whiteSpace=wrap;html=1;fontSize=11;" parent="1" vertex="1">
                    <mxGeometry x="400" y="440" width="120" height="60" as="geometry"/>
                </mxCell>
                <mxCell id="38" value="" style="shape=flexArrow;endArrow=classic;html=1;fontSize=11;entryX=0.5;entryY=1;entryDx=0;entryDy=0;exitX=0.5;exitY=0;exitDx=0;exitDy=0;rounded=1;" parent="1" source="36" target="5" edge="1">
                    <mxGeometry width="50" height="50" relative="1" as="geometry">
                        <mxPoint x="250" y="600" as="sourcePoint"/>
                        <mxPoint x="300" y="550" as="targetPoint"/>
                    </mxGeometry>
                </mxCell>
            </root>
        </mxGraphModel>
    </diagram>
</mxfile>